PathFileType  4	(X/Y/Z) C:\Users\antoi\Documents\MyRepositories\mobilecap\ResultsAnalysis
DataRate	CameraRate	NumFrames	NumMarkers	Units	OrigDataRate	OrigDataStartFrame	OrigNumFrames
100.0	100.0	5	51	mm	100.0	82	130
Frame#	Time	r_knee			r_shank_antsup			r_ankle			r_calc			r_5meta			r_toe			L_knee			L_shank_antsup			L_ankle			L_calc			L_5meta			L_toe			r_sh2			r_sh3			r_sh4			L_sh2			L_sh3			r_thigh1			r_thigh2			r_thigh3			r_thigh4			r_thigh5			L_thigh1			L_thigh2			L_thigh3			L_thigh4			r.ASIS			r.PSIS			L.ASIS			L.PSIS			C7			R_Shoulder			L_Shoulder			R_Sternum			L_Sternum			R_humerus			R_elbow_med			R_elbow_lat			R_forearm			R_wrist_radius			R_wrist_ulna			L_humerus			L_elbow_med			L_elbow_lat			L_forearm			L_wrist_radius			L_wrist_ulna			R_HJC			L_HJC			R_HJC_reg			L_HJC_reg			
		X1	Y1	Z1	X2	Y2	Z2	X3	Y3	Z3	X4	Y4	Z4	X5	Y5	Z5	X6	Y6	Z6	X7	Y7	Z7	X8	Y8	Z8	X9	Y9	Z9	X10	Y10	Z10	X11	Y11	Z11	X12	Y12	Z12	X13	Y13	Z13	X14	Y14	Z14	X15	Y15	Z15	X16	Y16	Z16	X17	Y17	Z17	X18	Y18	Z18	X19	Y19	Z19	X20	Y20	Z20	X21	Y21	Z21	X22	Y22	Z22	X23	Y23	Z23	X24	Y24	Z24	X25	Y25	Z25	X26	Y26	Z26	X27	Y27	Z27	X28	Y28	Z28	X29	Y29	Z29	X30	Y30	Z30	X31	Y31	Z31	X32	Y32	Z32	X33	Y33	Z33	X34	Y34	Z34	X35	Y35	Z35	X36	Y36	Z36	X37	Y37	Z37	X38	Y38	Z38	X39	Y39	Z39	X40	Y40	Z40	X41	Y41	Z41	X42	Y42	Z42	X43	Y43	Z43	X44	Y44	Z44	X45	Y45	Z45	X46	Y46	Z46	X47	Y47	Z47	X48	Y48	Z48	X49	Y49	Z49	X50	Y50	Z50	X51	Y51	Z51	

82	0.81000000	942.76615	556.20568	-36.47675	925.81539	451.38773	-54.47239	638.86046	270.81516	-80.84115	550.43038	296.12101	-133.00784	652.48891	128.99191	-43.49135	717.75505	107.51635	-102.97336	847.57960	539.26986	-351.00227	855.90115	445.32596	-365.18565	859.75774	116.59255	-279.61777	786.39676	71.93369	-219.55929	977.00036	49.19684	-308.87090	1036.84195	80.68884	-247.50800	838.67265	381.35669	-33.16967	894.56009	504.07323	-9.75985	792.35832	446.32773	-4.93740	766.09354	443.26544	-353.40774	785.68202	324.76756	-336.40238	908.17174	874.84922	-28.49237	953.58974	775.14055	-30.80764	910.55251	730.09080	-2.56882	807.95295	827.86918	-21.69100	858.01270	723.79804	-20.87397	894.14346	837.80650	-382.15448	917.02488	700.37112	-361.24933	787.15145	816.65328	-395.98181	805.83897	682.44891	-380.59162	871.23435	1079.87345	-73.29325	690.94608	1073.55139	-146.43680	875.70367	1083.48908	-326.41426	689.21367	1080.55666	-256.71437	779.17856	1634.60306	-212.00459	835.34886	1559.33997	-45.41449	796.62606	1552.31789	-382.97673	880.17085	1521.40285	-187.14523	874.09838	1518.82775	-243.65642	838.09151	1402.71561	23.09405	760.92291	1198.24572	-15.34182	774.81929	1218.48258	67.56778	875.21723	1074.34829	88.34435	942.04990	1004.25845	78.72271	900.99079	994.12887	99.78587	753.71716	1420.92635	-451.22075	674.55876	1206.00762	-354.95027	679.21553	1207.06171	-437.50394	704.16166	1137.75900	-459.29210	718.50765	957.61901	-452.75023	678.78975	961.25000	-461.10282	804.77462	955.74219	-98.90737	802.14000	966.14682	-305.58553	826.37035	986.06824	-114.14193	823.75227	996.66250	-280.88929	
83	0.82000000	965.94797	561.86546	-38.51619	952.79608	456.71893	-55.69703	673.20489	264.19469	-80.02974	583.10283	284.39748	-132.00259	694.43657	124.15739	-41.05987	760.40349	105.34898	-100.62615	852.07889	539.89320	-351.12267	859.44860	445.92825	-365.26572	860.12758	116.84236	-279.59492	786.67057	71.95020	-219.45361	977.00981	49.14315	-308.96270	1037.00001	80.38186	-247.51413	868.54910	383.49012	-33.52999	919.46414	508.44948	-11.44879	819.77031	446.74006	-5.82288	769.61626	444.63583	-353.85755	788.03199	326.04873	-336.79616	924.52464	879.66108	-29.95543	972.64800	781.29218	-32.95732	930.98030	735.51314	-3.88843	825.83841	830.19429	-21.91168	878.77588	727.44514	-21.34598	903.39435	837.84014	-382.32341	924.13438	700.08199	-361.39282	796.04580	818.20614	-396.15120	812.65088	683.78676	-380.81996	883.94270	1082.60457	-74.84645	703.65373	1075.71525	-146.43350	887.50956	1084.90743	-327.70586	701.57324	1082.36947	-256.76300	792.39756	1636.37929	-212.37487	847.97272	1561.37833	-45.49966	810.26495	1554.38605	-383.10979	893.18020	1523.27355	-187.08754	886.97190	1520.53060	-243.62779	849.46776	1404.32176	22.49874	770.51741	1201.12997	-18.06250	783.90121	1220.37343	64.99800	878.33470	1072.58520	87.15053	942.22194	999.52809	78.38214	900.47107	991.28102	99.02089	769.91976	1422.91421	-452.40839	694.80425	1205.09948	-359.10342	700.62794	1207.07728	-441.54076	728.38287	1138.75906	-463.33939	749.27118	959.28872	-458.23200	709.54128	961.51849	-466.88394	817.77394	958.28302	-99.14932	814.02388	967.67300	-305.85875	839.10213	988.43812	-115.20996	835.96328	998.48637	-281.78791	
84	0.83000000	988.21723	567.30197	-40.63320	979.13862	461.94097	-56.80902	708.24850	256.57652	-79.18774	616.66708	271.31790	-130.82414	737.50991	118.81210	-38.85313	804.09679	103.03898	-98.59407	856.65914	540.45590	-351.20531	863.10309	446.47799	-365.30123	860.50172	117.07778	-279.54513	787.05693	71.96635	-219.32742	977.01534	49.09131	-309.05487	1037.13092	80.04675	-247.52241	898.01116	385.51564	-33.82146	943.38157	512.57889	-13.11080	846.58483	446.67924	-6.76997	773.24288	445.96931	-354.26505	790.51720	327.26316	-337.17961	940.71741	884.08903	-31.40044	991.41096	787.11998	-35.07160	951.19718	740.69178	-5.12548	843.61580	832.40322	-21.98603	899.19171	730.99656	-21.75314	912.51510	837.70534	-382.79811	931.10827	699.65100	-361.76153	804.81056	819.56218	-396.30071	819.37050	685.02431	-381.04021	896.66132	1084.96471	-76.46772	716.36649	1077.59203	-146.21604	899.18751	1086.09026	-329.03223	713.87965	1083.93354	-256.57318	805.53880	1637.89227	-212.71232	860.67781	1563.07074	-45.61258	823.81152	1556.28374	-383.24785	906.17674	1524.88261	-187.10344	899.75753	1521.99358	-243.64371	860.93770	1405.58951	21.82598	780.14893	1203.72442	-20.59387	793.05468	1222.06746	62.58111	881.36002	1070.90740	86.01892	942.15981	994.99728	78.09473	899.79857	988.69002	98.23374	786.05085	1424.87312	-453.61779	715.10832	1204.25000	-363.19088	721.93829	1207.21810	-445.52334	752.50367	1140.00479	-467.35800	780.14581	961.52281	-463.69683	740.32868	962.10635	-472.49661	830.81778	960.48687	-99.39487	825.74449	968.96377	-306.11556	851.79570	990.49944	-116.34766	848.04917	1000.06144	-282.73212	
85	0.84000000	1009.59090	572.47283	-42.84643	1004.72830	466.99463	-57.89349	744.01407	248.14343	-78.35140	651.22980	257.03804	-129.55319	781.70580	113.17810	-36.85162	848.78112	100.79349	-96.84127	861.28177	540.95681	-351.21545	866.72997	446.95734	-365.26066	860.86475	117.30312	-279.43241	787.50291	71.99353	-219.18861	977.02058	49.04356	-309.13540	1037.23658	79.67327	-247.52369	927.07251	387.33535	-34.12612	966.32311	516.31409	-14.78945	872.84534	446.08155	-7.81859	776.86004	447.29366	-354.40135	792.99109	328.43316	-337.35084	956.76984	888.11837	-32.82789	1009.85351	792.55182	-37.14214	971.16719	745.54410	-6.33249	861.26847	834.48618	-21.98963	919.19348	734.39832	-22.19497	921.53004	837.41303	-383.50779	937.98280	699.09416	-362.28826	813.48862	820.76057	-396.41169	826.02944	686.16047	-381.20525	909.41869	1086.93856	-78.09926	729.08849	1079.13291	-145.84493	910.76382	1087.03206	-330.37361	726.13459	1085.21547	-256.20586	818.60973	1639.13185	-213.01181	873.47200	1564.38326	-45.73894	837.28264	1557.96537	-383.38701	919.17771	1526.20771	-187.18352	912.54057	1523.22948	-243.69737	872.48978	1406.47400	21.10196	789.83761	1205.96224	-22.93755	802.27551	1223.51302	60.32213	884.35255	1069.28449	84.93754	941.94506	990.66879	77.83698	899.08888	986.34481	97.43033	802.11005	1426.73209	-454.82805	735.41961	1203.41690	-367.21388	743.12036	1207.42661	-449.45578	776.48208	1141.43548	-471.35437	811.04907	964.29907	-469.15165	771.17811	962.97849	-477.95849	843.91732	962.32549	-99.65759	837.36241	970.00221	-306.36790	864.49904	992.20391	-117.51832	860.05344	1001.36374	-283.70859	
86	0.85000000	1030.07644	577.31564	-45.15298	1029.45049	471.80522	-59.00780	780.50894	239.07751	-77.58163	686.92620	241.75889	-128.32898	826.89359	107.46304	-35.04676	894.32790	98.79056	-95.30150	865.90834	541.39708	-351.13202	870.24668	447.36185	-365.12235	861.21608	117.52780	-279.23133	787.92688	72.05061	-219.04861	977.02833	49.00154	-309.19393	1037.32837	79.25815	-247.51084	955.73277	388.86312	-34.50326	988.30333	519.53397	-16.52910	898.58625	444.89895	-8.99488	780.40616	448.62447	-354.14366	795.35991	329.58044	-337.19279	972.70228	891.75179	-34.22893	1027.92792	797.52122	-39.16598	990.79117	749.99824	-7.58246	878.76371	836.43515	-22.00906	938.70673	737.59077	-22.78123	930.45645	836.97655	-384.35695	944.79394	698.43160	-362.89502	822.09896	821.83343	-396.46609	832.66660	687.19910	-381.27878	922.26021	1088.53316	-79.67807	741.83303	1080.30703	-145.37806	922.26935	1087.73030	-331.71135	738.34767	1086.19675	-255.72141	831.61600	1640.09707	-213.26655	886.35444	1565.30264	-45.86221	850.69934	1559.39226	-383.51947	932.19114	1527.24117	-187.30944	925.38091	1524.24997	-243.77955	884.10465	1406.95963	20.36642	799.59068	1207.80829	-25.10248	811.56358	1224.67636	58.22038	887.36729	1067.69367	83.89669	941.64720	986.54559	77.58236	898.44350	984.23668	96.61704	818.08617	1428.42474	-456.01825	755.69651	1202.55084	-371.18837	764.15910	1207.64570	-453.35030	800.29516	1142.99134	-475.33475	841.92337	967.57438	-474.58678	802.13510	964.14635	-483.29226	857.09164	963.79137	-99.94101	848.94262	970.77830	-306.61900	877.27236	993.51629	-118.67815	872.02973	1002.37757	-284.70111	
